<?xml version="1.0" encoding="UTF-8"?>
<svg width="64px" height="64px" viewBox="0 0 64 64" version="1.1" xmlns="http://www.w3.org/2000/svg" xmlns:xlink="http://www.w3.org/1999/xlink">
    <title>MenuBarIconSolid</title>
    <g id="MenuBarIconSolid" stroke="none" fill="none" fill-rule="evenodd">
        <path d="M36.2944665,3 C44.0896717,3 47.5091978,3.92825611 50.768457,5.67132704 C54.0277163,7.41439796 56.585602,9.97228371 58.328673,13.231543 C60.0717439,16.4908022 61,19.9103283 61,27.7055335 L61,36.2944665 C61,44.0896717 60.0717439,47.5091978 58.328673,50.768457 C56.585602,54.0277163 54.0277163,56.585602 50.768457,58.328673 C47.5091978,60.0717439 44.0896717,61 36.2944665,61 L27.7055335,61 C19.9103283,61 16.4908022,60.0717439 13.231543,58.328673 C9.97228371,56.585602 7.41439796,54.0277163 5.67132704,50.768457 C3.92825611,47.5091978 3,44.0896717 3,36.2944665 L3,27.7055335 C3,19.9103283 3.92825611,16.4908022 5.67132704,13.231543 C7.41439796,9.97228371 9.97228371,7.41439796 13.231543,5.67132704 C16.4908022,3.92825611 19.9103283,3 27.7055335,3 L36.2944665,3 Z M34.3662506,17.5228333 L25.4198639,17.5228333 C23.7631256,17.5228333 22.7483734,18.5582947 22.7483734,20.2978699 L22.7483734,44.9832703 C22.7483734,46.7435547 23.7631256,47.7583069 25.4198639,47.7583069 C27.0973114,47.7583069 28.0913544,46.7435547 28.0913544,44.9832703 L28.0913544,37.527948 L34.1384491,37.527948 C40.1855438,37.527948 44.4309357,33.4896484 44.4309357,27.5253906 C44.4309357,21.5611328 40.3097992,17.5228333 34.3662506,17.5228333 Z M32.9580231,21.8924805 C36.7892303,21.8924805 39.0051178,23.9426941 39.0051178,27.5253906 C39.0051178,31.1495056 36.7685211,33.2204285 32.9373138,33.2204285 L28.0913544,33.2204285 L28.0913544,21.8924805 L32.9580231,21.8924805 Z" id="Combined-Shape" fill="color(display-p3 0.929 0.949 0.969)"></path>
    </g>
</svg>