<?xml version="1.0" encoding="UTF-8"?>
<svg width="64px" height="64px" viewBox="0 0 64 64" version="1.1" xmlns="http://www.w3.org/2000/svg" xmlns:xlink="http://www.w3.org/1999/xlink">
    <title>MenuBarIcon</title>
    <g id="MenuBarIcon" stroke="none" fill="none">
        <path d="M59,6 L59,13.4571378 C59,19.8109236 55.8154702,23 49.4959555,23 L15.5039687,23 C9.18445399,23 6,19.8109236 6,13.4571378 L6,6 L10.369,6 L10.369363,13.383534 C10.369363,16.7081745 12.1058877,18.5636932 15.4874459,18.6543912 L15.7508089,18.6578821 L49.2492417,18.6578821 C52.8038423,18.6578821 54.6306876,16.7934217 54.6306876,13.383534 L54.63,6 L59,6 Z M16.5407482,-44.6100787 C16.5160768,-44.3892926 16.5160768,-44.1194206 16.5160768,-43.8986346 L16.5160768,-41.4699877 C16.5160768,-41.0529333 16.5407482,-40.6113612 16.6148129,-40.2433928 L15.3311678,-40.2433928 C12.0479778,-40.2433928 10.369363,-38.2562929 10.369363,-34.9690195 L10.369,-2 L6,-2 L6,-35.0425981 C6,-41.1644015 8.97837244,-44.4921225 14.9117218,-44.6070004 L15.2324065,-44.6100787 Z M49.7676946,-44.6100787 C55.9143074,-44.6100787 59,-41.2737194 59,-35.0425981 L59,-2 L54.63,-2 L54.6306876,-34.9690195 C54.6306876,-38.1720038 53.036956,-40.1406354 49.9182389,-40.239485 L49.6688574,-40.2433928 L48.3852376,-40.2433928 C48.4593023,-40.6113612 48.483822,-41.0529333 48.483822,-41.4699877 L48.483822,-43.8986346 C48.483822,-44.1194206 48.483822,-44.3892926 48.4593023,-44.6100787 Z M32.5123862,-53 C36.0176946,-53 38.9059656,-50.2033596 39.0786148,-46.7688787 L42.2631446,-46.7688787 C43.9911527,-46.7688787 45.0525784,-45.7140091 45.0525784,-43.9231775 L45.0525784,-40.635879 C45.0525784,-38.8450474 43.9911527,-37.7901778 42.2631446,-37.7901778 L22.7368301,-37.7901778 C21.0088473,-37.7901778 19.9473711,-38.8450474 19.9473711,-40.635879 L19.9473711,-43.9231775 C19.9473711,-45.7140091 21.0088473,-46.7688787 22.7368301,-46.7688787 L25.9212841,-46.7688787 C26.0940849,-50.2033596 28.9823054,-53 32.5123862,-53 Z M32.5123862,-49.3937939 C30.932457,-49.3937939 29.6734833,-48.1426811 29.6734833,-46.5726356 C29.6734833,-45.0761687 30.932457,-43.77597 32.5123862,-43.77597 C34.0674924,-43.77597 35.3265925,-45.0761687 35.3265925,-46.5726356 C35.3265925,-48.1426811 34.0674924,-49.3937939 32.5123862,-49.3937939 Z" id="Combined-Shape" fill="color(display-p3 0.929 0.949 0.969)" fill-rule="nonzero"></path>
        <path d="M8.1098026,33.7591699 L38.8901974,33.7591699 C39.925785,33.7591699 40.7492512,32.9268844 40.7492512,31.8529144 C40.7492512,30.8325604 39.925785,30 38.8901974,30 L8.1098026,30 C7.0740518,30 6.25074875,30.8325604 6.25074875,31.8529144 C6.25074875,32.9268844 7.0740518,33.7591699 8.1098026,33.7591699 Z M8.1860245,53.2508391 L38.8139755,53.2508391 C39.8444343,53.2508391 40.6638222,52.4185536 40.6638222,51.3445836 C40.6638222,50.3242297 39.8444343,49.4916692 38.8139755,49.4916692 L8.1860245,49.4916692 C7.15540338,49.4916692 6.33617785,50.3242297 6.33617785,51.3445836 C6.33617785,52.4185536 7.15540338,53.2508391 8.1860245,53.2508391 Z M7.85905385,43.4916692 L25.4403295,43.4916692 C26.4759171,43.4916692 27.3257626,42.6324383 27.3257626,41.6120843 C27.3257626,40.5917303 26.5025683,39.7591699 25.4403295,39.7591699 L7.85905385,39.7591699 C6.82330305,39.7591699 6,40.5917303 6,41.6120843 C6,42.6324383 6.84984542,43.4916692 7.85905385,43.4916692 Z M31.5332913,43.4916692 L49.114567,43.4916692 C50.1501546,43.4916692 51,42.6324383 51,41.6120843 C51,40.5917303 50.1768057,39.7591699 49.114567,39.7591699 L31.5332913,39.7591699 C30.4975405,39.7591699 29.6742374,40.5917303 29.6742374,41.6120843 C29.6742374,42.6324383 30.5240829,43.4916692 31.5332913,43.4916692 Z" id="Shape" fill="color(display-p3 0.929 0.949 0.969)" fill-rule="nonzero"></path>
        <path d="M6,6 L59,6 L59,16.590287 C59,18.8190838 58.767936,19.6272994 58.3321682,20.4421143 C57.8964005,21.2569291 57.2569291,21.8964005 56.4421143,22.3321682 C55.6272994,22.767936 54.8190838,23 52.590287,23 L12.409713,23 C10.1809162,23 9.37270056,22.767936 8.55788574,22.3321682 C7.74307093,21.8964005 7.10359949,21.2569291 6.66783176,20.4421143 C6.23206403,19.6272994 6,18.8190838 6,16.590287 L6,6 L6,6 Z" id="Rectangle-2" fill="color(display-p3 0.929 0.949 0.969)" fill-rule="evenodd"></path>
    </g>
</svg>